# xmcd
#
# Track frame offsets: 
#        150
#        12991
#        26881
#        38976
#        49905
#        61087
#        73689
#        85040
#        96868
#        109228
#        118261
#        131121
#        145139
#        159676
#        169675
#        181495
#        194471
#        204861
#        213422
#        224989
#        238483
#        245783
#        258396
#        266615
#
# Disc length: 3686 seconds
#
# Revision: 0
# Processed by: cddbd v1.5.2PL0 Copyright (c) Steve Scherf et al.
# Submitted via: ExactAudioCopyFreeDBPlugin 1.0
#
DISCID=7d0e6418
DTITLE=Various Artist - 24 Greatest R&B Christmas Hits
DYEAR=2007
DGENRE=R&B
TTITLE0=Charles Brown - Please Come Home For Christmas
TTITLE1=Hank Ballard - Christmas Time For Everybody But Me
TTITLE2=Charles Brown - Merry Christmas Baby
TTITLE3=Amos Milburn - Christmas Comes But Once A Year
TTITLE4=Lowell Fulson - Lonesome Christmas Part 1
TTITLE5=Freddy King - Christmas Tears
TTITLE6=Bill Doggett - Jingle Bells
TTITLE7=Carla Thomas - Gee Whiz It's Christmas
TTITLE8=Billy Ward and The Dominoes - Christmas In Heaven
TTITLE9=Lloyd Glenn - Sleigh Ride
TTITLE10=Lillian Brooks - Twinkle Twinkle Christmas Star
TTITLE11=Hank Ballard - Santa Claus Is Coming
TTITLE12=Charles Brown - Christmas With No One To Love
TTITLE13=Lowell Fulson - Lonesome Christmas Part 2
TTITLE14=Freddy King - I Hear Jingle Bells
TTITLE15=Gatemouth Moore - Christmas Blues
TTITLE16=Mabel Scott - Boogie Woogie Santa Claus
TTITLE17=Carla Thomas - All I Want For Christmas
TTITLE18=Bill Doggett - I Saw Mommy Kissing Santa Claus
TTITLE19=Jimmy Witherspoon - How I Hate To See Christmas Come Around
TTITLE20=Trailblazers - Frosty The Snowman
TTITLE21=Galatian Singers - The First Noel
TTITLE22=King Kaoleers - Adeste Fideles
TTITLE23=Bill Doggett - Silent Night
EXTD=
EXTT0=
EXTT1=
EXTT2=
EXTT3=
EXTT4=
EXTT5=
EXTT6=
EXTT7=
EXTT8=
EXTT9=
EXTT10=
EXTT11=
EXTT12=
EXTT13=
EXTT14=
EXTT15=
EXTT16=
EXTT17=
EXTT18=
EXTT19=
EXTT20=
EXTT21=
EXTT22=
EXTT23=
PLAYORDER=
